<svg width="24" height="24" viewBox="0 0 24 24" fill="none" xmlns="http://www.w3.org/2000/svg">
<mask id="mask0_247_35" style="mask-type:alpha" maskUnits="userSpaceOnUse" x="0" y="0" width="24" height="24">
<rect width="24" height="24" fill="#D9D9D9"/>
</mask>
<g mask="url(#mask0_247_35)">
<path d="M12.5001 19C12.2132 19 11.9728 18.9042 11.7787 18.7125C11.5846 18.5208 11.4876 18.2833 11.4876 18V13H6.4251C6.13822 13 5.89775 12.9042 5.70369 12.7125C5.50963 12.5208 5.4126 12.2833 5.4126 12C5.4126 11.7167 5.50963 11.4792 5.70369 11.2875C5.89775 11.0958 6.13822 11 6.4251 11H11.4876V6C11.4876 5.71667 11.5846 5.47917 11.7787 5.2875C11.9728 5.09583 12.2132 5 12.5001 5C12.787 5 13.0274 5.09583 13.2215 5.2875C13.4156 5.47917 13.5126 5.71667 13.5126 6V11H18.5751C18.862 11 19.1024 11.0958 19.2965 11.2875C19.4906 11.4792 19.5876 11.7167 19.5876 12C19.5876 12.2833 19.4906 12.5208 19.2965 12.7125C19.1024 12.9042 18.862 13 18.5751 13H13.5126V18C13.5126 18.2833 13.4156 18.5208 13.2215 18.7125C13.0274 18.9042 12.787 19 12.5001 19Z" fill="#D9D9D9"/>
</g>
</svg>
