<svg width="24" height="24" viewBox="0 0 24 24" fill="none" xmlns="http://www.w3.org/2000/svg">
<mask id="mask0_247_32" style="mask-type:alpha" maskUnits="userSpaceOnUse" x="0" y="0" width="24" height="24">
<rect width="24" height="24" fill="#D9D9D9"/>
</mask>
<g mask="url(#mask0_247_32)">
<path d="M12.5 19.55C12.3144 19.55 12.133 19.525 11.9558 19.475C11.7786 19.425 11.6141 19.3583 11.4622 19.275C10.7704 18.8583 10.0447 18.5417 9.28536 18.325C8.52599 18.1083 7.7413 18 6.9313 18C6.22255 18 5.52646 18.0917 4.84302 18.275C4.15958 18.4583 3.50567 18.7167 2.8813 19.05C2.52692 19.2333 2.18521 19.225 1.85614 19.025C1.52708 18.825 1.36255 18.5333 1.36255 18.15V6.10001C1.36255 5.91668 1.40896 5.74168 1.50177 5.57501C1.59458 5.40834 1.7338 5.28334 1.91942 5.20001C2.69567 4.80001 3.50567 4.50001 4.34942 4.30001C5.19317 4.10001 6.0538 4.00001 6.9313 4.00001C7.91005 4.00001 8.86771 4.12501 9.80427 4.37501C10.7408 4.62501 11.6394 5.00001 12.5 5.50001V17.6C13.3607 17.0667 14.2635 16.6667 15.2085 16.4C16.1535 16.1333 17.1069 16 18.0688 16C18.6763 16 19.2711 16.05 19.8533 16.15C20.4355 16.25 21.0219 16.4 21.6125 16.6V4.60001C21.8657 4.68334 22.1146 4.77084 22.3593 4.86251C22.604 4.95418 22.8444 5.06668 23.0807 5.20001C23.2663 5.28334 23.4055 5.40834 23.4983 5.57501C23.5911 5.74168 23.6375 5.91668 23.6375 6.10001V18.15C23.6375 18.5333 23.473 18.825 23.144 19.025C22.8149 19.225 22.4732 19.2333 22.1188 19.05C21.4944 18.7167 20.8405 18.4583 20.1571 18.275C19.4736 18.0917 18.7775 18 18.0688 18C17.2588 18 16.4741 18.1083 15.7147 18.325C14.9554 18.5417 14.2297 18.8583 13.5379 19.275C13.386 19.3583 13.2215 19.425 13.0443 19.475C12.8671 19.525 12.6857 19.55 12.5 19.55ZM15.3604 14.25C15.1916 14.4 15.0102 14.4292 14.8161 14.3375C14.6221 14.2458 14.525 14.0917 14.525 13.875V5.70001C14.525 5.66668 14.5757 5.55001 14.6769 5.35001L18.7269 1.35002C18.8957 1.18335 19.0813 1.14168 19.2838 1.22502C19.4863 1.30835 19.5875 1.46668 19.5875 1.70002V10.275C19.5875 10.3417 19.5285 10.4667 19.4104 10.65L15.3604 14.25Z" fill="#D9D9D9"/>
</g>
</svg>
