<svg width="24" height="24" viewBox="0 0 24 24" fill="none" xmlns="http://www.w3.org/2000/svg">
<mask id="mask0_264_259" style="mask-type:alpha" maskUnits="userSpaceOnUse" x="0" y="0" width="24" height="24">
<rect width="24" height="24" fill="#D9D9D9"/>
</mask>
<g mask="url(#mask0_264_259)">
<path d="M7.0375 21C6.48062 21 6.00391 20.8042 5.60734 20.4125C5.21078 20.0208 5.0125 19.55 5.0125 19V6C4.72562 6 4.48516 5.90417 4.29109 5.7125C4.09703 5.52083 4 5.28333 4 5C4 4.71667 4.09703 4.47917 4.29109 4.2875C4.48516 4.09583 4.72562 4 5.0125 4H9.0625C9.0625 3.71667 9.15953 3.47917 9.35359 3.2875C9.54766 3.09583 9.78812 3 10.075 3H14.125C14.4119 3 14.6523 3.09583 14.8464 3.2875C15.0405 3.47917 15.1375 3.71667 15.1375 4H19.1875C19.4744 4 19.7148 4.09583 19.9089 4.2875C20.103 4.47917 20.2 4.71667 20.2 5C20.2 5.28333 20.103 5.52083 19.9089 5.7125C19.7148 5.90417 19.4744 6 19.1875 6V19C19.1875 19.55 18.9892 20.0208 18.5927 20.4125C18.1961 20.8042 17.7194 21 17.1625 21H7.0375ZM7.0375 6V19H17.1625V6H7.0375ZM9.0625 16C9.0625 16.2833 9.15953 16.5208 9.35359 16.7125C9.54766 16.9042 9.78812 17 10.075 17C10.3619 17 10.6023 16.9042 10.7964 16.7125C10.9905 16.5208 11.0875 16.2833 11.0875 16V9C11.0875 8.71667 10.9905 8.47917 10.7964 8.2875C10.6023 8.09583 10.3619 8 10.075 8C9.78812 8 9.54766 8.09583 9.35359 8.2875C9.15953 8.47917 9.0625 8.71667 9.0625 9V16ZM13.1125 16C13.1125 16.2833 13.2095 16.5208 13.4036 16.7125C13.5977 16.9042 13.8381 17 14.125 17C14.4119 17 14.6523 16.9042 14.8464 16.7125C15.0405 16.5208 15.1375 16.2833 15.1375 16V9C15.1375 8.71667 15.0405 8.47917 14.8464 8.2875C14.6523 8.09583 14.4119 8 14.125 8C13.8381 8 13.5977 8.09583 13.4036 8.2875C13.2095 8.47917 13.1125 8.71667 13.1125 9V16Z" fill="#D9D9D9"/>
</g>
</svg>
