<svg width="24" height="24" viewBox="0 0 24 24" fill="none" xmlns="http://www.w3.org/2000/svg">
<mask id="mask0_264_256" style="mask-type:alpha" maskUnits="userSpaceOnUse" x="0" y="0" width="24" height="24">
<rect width="24" height="24" fill="#D9D9D9"/>
</mask>
<g mask="url(#mask0_264_256)">
<path d="M12.1 15.575C11.965 15.575 11.8384 15.5542 11.7203 15.5125C11.6022 15.4708 11.4925 15.4 11.3912 15.3L7.74625 11.7C7.56062 11.5167 7.46781 11.2833 7.46781 11C7.46781 10.7167 7.56062 10.4833 7.74625 10.3C7.93187 10.1167 8.17234 10.0208 8.46766 10.0125C8.76297 10.0042 9.00344 10.0917 9.18906 10.275L11.0875 12.15V5C11.0875 4.71667 11.1845 4.47917 11.3786 4.2875C11.5727 4.09583 11.8131 4 12.1 4C12.3869 4 12.6273 4.09583 12.8214 4.2875C13.0155 4.47917 13.1125 4.71667 13.1125 5V12.15L15.0109 10.275C15.1966 10.0917 15.437 10.0042 15.7323 10.0125C16.0277 10.0208 16.2681 10.1167 16.4537 10.3C16.6394 10.4833 16.7322 10.7167 16.7322 11C16.7322 11.2833 16.6394 11.5167 16.4537 11.7L12.8087 15.3C12.7075 15.4 12.5978 15.4708 12.4797 15.5125C12.3616 15.5542 12.235 15.575 12.1 15.575ZM6.025 20C5.46812 20 4.99141 19.8042 4.59484 19.4125C4.19828 19.0208 4 18.55 4 18V16C4 15.7167 4.09703 15.4792 4.29109 15.2875C4.48516 15.0958 4.72562 15 5.0125 15C5.29937 15 5.53984 15.0958 5.73391 15.2875C5.92797 15.4792 6.025 15.7167 6.025 16V18H18.175V16C18.175 15.7167 18.272 15.4792 18.4661 15.2875C18.6602 15.0958 18.9006 15 19.1875 15C19.4744 15 19.7148 15.0958 19.9089 15.2875C20.103 15.4792 20.2 15.7167 20.2 16V18C20.2 18.55 20.0017 19.0208 19.6052 19.4125C19.2086 19.8042 18.7319 20 18.175 20H6.025Z" fill="#D9D9D9"/>
</g>
</svg>
