<svg width="24" height="24" viewBox="0 0 24 24" fill="none" xmlns="http://www.w3.org/2000/svg">
<mask id="mask0_247_26" style="mask-type:alpha" maskUnits="userSpaceOnUse" x="0" y="0" width="24" height="24">
<rect width="24" height="24" fill="#D9D9D9"/>
</mask>
<g mask="url(#mask0_247_26)">
<path d="M8.44995 17C8.73683 17 8.9773 16.9042 9.17136 16.7125C9.36542 16.5208 9.46245 16.2833 9.46245 16C9.46245 15.7167 9.36542 15.4792 9.17136 15.2875C8.9773 15.0958 8.73683 15 8.44995 15C8.16308 15 7.92261 15.0958 7.72855 15.2875C7.53448 15.4792 7.43745 15.7167 7.43745 16C7.43745 16.2833 7.53448 16.5208 7.72855 16.7125C7.92261 16.9042 8.16308 17 8.44995 17ZM8.44995 13C8.73683 13 8.9773 12.9042 9.17136 12.7125C9.36542 12.5208 9.46245 12.2833 9.46245 12C9.46245 11.7167 9.36542 11.4792 9.17136 11.2875C8.9773 11.0958 8.73683 11 8.44995 11C8.16308 11 7.92261 11.0958 7.72855 11.2875C7.53448 11.4792 7.43745 11.7167 7.43745 12C7.43745 12.2833 7.53448 12.5208 7.72855 12.7125C7.92261 12.9042 8.16308 13 8.44995 13ZM8.44995 9C8.73683 9 8.9773 8.90417 9.17136 8.7125C9.36542 8.52083 9.46245 8.28333 9.46245 8C9.46245 7.71667 9.36542 7.47917 9.17136 7.2875C8.9773 7.09583 8.73683 7 8.44995 7C8.16308 7 7.92261 7.09583 7.72855 7.2875C7.53448 7.47917 7.43745 7.71667 7.43745 8C7.43745 8.28333 7.53448 8.52083 7.72855 8.7125C7.92261 8.90417 8.16308 9 8.44995 9ZM12.5 17H16.55C16.8368 17 17.0773 16.9042 17.2714 16.7125C17.4654 16.5208 17.5625 16.2833 17.5625 16C17.5625 15.7167 17.4654 15.4792 17.2714 15.2875C17.0773 15.0958 16.8368 15 16.55 15H12.5C12.2131 15 11.9726 15.0958 11.7785 15.2875C11.5845 15.4792 11.4875 15.7167 11.4875 16C11.4875 16.2833 11.5845 16.5208 11.7785 16.7125C11.9726 16.9042 12.2131 17 12.5 17ZM12.5 13H16.55C16.8368 13 17.0773 12.9042 17.2714 12.7125C17.4654 12.5208 17.5625 12.2833 17.5625 12C17.5625 11.7167 17.4654 11.4792 17.2714 11.2875C17.0773 11.0958 16.8368 11 16.55 11H12.5C12.2131 11 11.9726 11.0958 11.7785 11.2875C11.5845 11.4792 11.4875 11.7167 11.4875 12C11.4875 12.2833 11.5845 12.5208 11.7785 12.7125C11.9726 12.9042 12.2131 13 12.5 13ZM12.5 9H16.55C16.8368 9 17.0773 8.90417 17.2714 8.7125C17.4654 8.52083 17.5625 8.28333 17.5625 8C17.5625 7.71667 17.4654 7.47917 17.2714 7.2875C17.0773 7.09583 16.8368 7 16.55 7H12.5C12.2131 7 11.9726 7.09583 11.7785 7.2875C11.5845 7.47917 11.4875 7.71667 11.4875 8C11.4875 8.28333 11.5845 8.52083 11.7785 8.7125C11.9726 8.90417 12.2131 9 12.5 9ZM5.41245 21C4.85558 21 4.37886 20.8042 3.98229 20.4125C3.58573 20.0208 3.38745 19.55 3.38745 19V5C3.38745 4.45 3.58573 3.97917 3.98229 3.5875C4.37886 3.19583 4.85558 3 5.41245 3H19.5875C20.1443 3 20.621 3.19583 21.0176 3.5875C21.4142 3.97917 21.6125 4.45 21.6125 5V19C21.6125 19.55 21.4142 20.0208 21.0176 20.4125C20.621 20.8042 20.1443 21 19.5875 21H5.41245Z" fill="#D9D9D9"/>
</g>
</svg>
