<svg width="19" height="12" viewBox="0 0 19 12" fill="none" xmlns="http://www.w3.org/2000/svg">
<path d="M1.39995 12C1.11308 12 0.872607 11.9042 0.678545 11.7125C0.484482 11.5208 0.387451 11.2833 0.387451 11C0.387451 10.7167 0.484482 10.4792 0.678545 10.2875C0.872607 10.0958 1.11308 10 1.39995 10H17.6C17.8868 10 18.1273 10.0958 18.3214 10.2875C18.5154 10.4792 18.6125 10.7167 18.6125 11C18.6125 11.2833 18.5154 11.5208 18.3214 11.7125C18.1273 11.9042 17.8868 12 17.6 12H1.39995ZM1.39995 7C1.11308 7 0.872607 6.90417 0.678545 6.7125C0.484482 6.52083 0.387451 6.28333 0.387451 6C0.387451 5.71667 0.484482 5.47917 0.678545 5.2875C0.872607 5.09583 1.11308 5 1.39995 5H17.6C17.8868 5 18.1273 5.09583 18.3214 5.2875C18.5154 5.47917 18.6125 5.71667 18.6125 6C18.6125 6.28333 18.5154 6.52083 18.3214 6.7125C18.1273 6.90417 17.8868 7 17.6 7H1.39995ZM1.39995 2C1.11308 2 0.872607 1.90417 0.678545 1.7125C0.484482 1.52083 0.387451 1.28333 0.387451 1C0.387451 0.716667 0.484482 0.479167 0.678545 0.2875C0.872607 0.0958333 1.11308 0 1.39995 0H17.6C17.8868 0 18.1273 0.0958333 18.3214 0.2875C18.5154 0.479167 18.6125 0.716667 18.6125 1C18.6125 1.28333 18.5154 1.52083 18.3214 1.7125C18.1273 1.90417 17.8868 2 17.6 2H1.39995Z" fill="#1C1B1F"/>
</svg>
