<svg width="24" height="24" viewBox="0 0 24 24" fill="none" xmlns="http://www.w3.org/2000/svg">
<mask id="mask0_247_23" style="mask-type:alpha" maskUnits="userSpaceOnUse" x="0" y="0" width="24" height="24">
<rect width="24" height="24" fill="#D9D9D9"/>
</mask>
<g mask="url(#mask0_247_23)">
<path d="M12.4999 12C11.3862 12 10.4327 11.6083 9.63959 10.825C8.84646 10.0417 8.4499 9.1 8.4499 8C8.4499 6.9 8.84646 5.95833 9.63959 5.175C10.4327 4.39167 11.3862 4 12.4999 4C13.6137 4 14.5671 4.39167 15.3602 5.175C16.1533 5.95833 16.5499 6.9 16.5499 8C16.5499 9.1 16.1533 10.0417 15.3602 10.825C14.5671 11.6083 13.6137 12 12.4999 12ZM6.4249 20C5.86803 20 5.39131 19.8042 4.99475 19.4125C4.59818 19.0208 4.3999 18.55 4.3999 18V17.2C4.3999 16.6333 4.54756 16.1125 4.84287 15.6375C5.13818 15.1625 5.53053 14.8 6.0199 14.55C7.06615 14.0333 8.12928 13.6458 9.20928 13.3875C10.2893 13.1292 11.3862 13 12.4999 13C13.6137 13 14.7105 13.1292 15.7905 13.3875C16.8705 13.6458 17.9337 14.0333 18.9799 14.55C19.4693 14.8 19.8616 15.1625 20.1569 15.6375C20.4522 16.1125 20.5999 16.6333 20.5999 17.2V18C20.5999 18.55 20.4016 19.0208 20.0051 19.4125C19.6085 19.8042 19.1318 20 18.5749 20H6.4249Z" fill="#D9D9D9"/>
</g>
</svg>
