<svg width="24" height="24" viewBox="0 0 24 24" fill="none" xmlns="http://www.w3.org/2000/svg">
<mask id="mask0_247_11" style="mask-type:alpha" maskUnits="userSpaceOnUse" x="0" y="0" width="24" height="24">
<rect width="24" height="24" fill="#D9D9D9"/>
</mask>
<g mask="url(#mask0_247_11)">
<path d="M19.4862 20.3L13.8162 14.7C13.31 15.1 12.7278 15.4167 12.0696 15.65C11.4115 15.8833 10.7112 16 9.9687 16C8.12933 16 6.57261 15.3708 5.29855 14.1125C4.02448 12.8542 3.38745 11.3167 3.38745 9.5C3.38745 7.68333 4.02448 6.14583 5.29855 4.8875C6.57261 3.62917 8.12933 3 9.9687 3C11.8081 3 13.3648 3.62917 14.6389 4.8875C15.9129 6.14583 16.55 7.68333 16.55 9.5C16.55 10.2333 16.4318 10.925 16.1956 11.575C15.9593 12.225 15.6387 12.8 15.2337 13.3L20.929 18.925C21.1146 19.1083 21.2075 19.3333 21.2075 19.6C21.2075 19.8667 21.1062 20.1 20.9037 20.3C20.7181 20.4833 20.4818 20.575 20.195 20.575C19.9081 20.575 19.6718 20.4833 19.4862 20.3ZM9.9687 14C11.2343 14 12.3101 13.5625 13.196 12.6875C14.082 11.8125 14.525 10.75 14.525 9.5C14.525 8.25 14.082 7.1875 13.196 6.3125C12.3101 5.4375 11.2343 5 9.9687 5C8.70308 5 7.6273 5.4375 6.74136 6.3125C5.85542 7.1875 5.41245 8.25 5.41245 9.5C5.41245 10.75 5.85542 11.8125 6.74136 12.6875C7.6273 13.5625 8.70308 14 9.9687 14Z" fill="#D9D9D9"/>
</g>
</svg>
