<svg width="21" height="20" viewBox="0 0 21 20" fill="none" xmlns="http://www.w3.org/2000/svg">
<path d="M12.3985 20H8.60165C8.34852 20 8.12915 19.9167 7.94352 19.75C7.7579 19.5833 7.64821 19.375 7.61446 19.125L7.31071 16.8C7.09133 16.7167 6.88462 16.6167 6.69055 16.5C6.49649 16.3833 6.30665 16.2583 6.12102 16.125L3.91883 17.025C3.68259 17.1083 3.44634 17.1167 3.21009 17.05C2.97384 16.9833 2.78821 16.8417 2.65321 16.625L0.780085 13.4C0.645085 13.1833 0.602898 12.95 0.653523 12.7C0.704148 12.45 0.83071 12.25 1.03321 12.1L2.93165 10.675C2.91477 10.5583 2.90634 10.4458 2.90634 10.3375V9.6625C2.90634 9.55417 2.91477 9.44167 2.93165 9.325L1.03321 7.9C0.83071 7.75 0.704148 7.55 0.653523 7.3C0.602898 7.05 0.645085 6.81667 0.780085 6.6L2.65321 3.375C2.77134 3.14167 2.95274 2.99583 3.19743 2.9375C3.44212 2.87917 3.68259 2.89167 3.91883 2.975L6.12102 3.875C6.30665 3.74167 6.50071 3.61667 6.70321 3.5C6.90571 3.38333 7.10821 3.28333 7.31071 3.2L7.61446 0.875C7.64821 0.625 7.7579 0.416667 7.94352 0.25C8.12915 0.0833333 8.34852 0 8.60165 0H12.3985C12.6516 0 12.871 0.0833333 13.0566 0.25C13.2423 0.416667 13.352 0.625 13.3857 0.875L13.6895 3.2C13.9088 3.28333 14.1156 3.38333 14.3096 3.5C14.5037 3.61667 14.6935 3.74167 14.8791 3.875L17.0813 2.975C17.3176 2.89167 17.5538 2.88333 17.7901 2.95C18.0263 3.01667 18.212 3.15833 18.347 3.375L20.2201 6.6C20.3551 6.81667 20.3973 7.05 20.3466 7.3C20.296 7.55 20.1695 7.75 19.967 7.9L18.0685 9.325C18.0854 9.44167 18.0938 9.55417 18.0938 9.6625V10.3375C18.0938 10.4458 18.077 10.5583 18.0432 10.675L19.9416 12.1C20.1441 12.25 20.2707 12.45 20.3213 12.7C20.372 12.95 20.3298 13.1833 20.1948 13.4L18.3216 16.6C18.1866 16.8167 17.9968 16.9625 17.7521 17.0375C17.5074 17.1125 17.267 17.1083 17.0307 17.025L14.8791 16.125C14.6935 16.2583 14.4995 16.3833 14.297 16.5C14.0945 16.6167 13.892 16.7167 13.6895 16.8L13.3857 19.125C13.352 19.375 13.2423 19.5833 13.0566 19.75C12.871 19.9167 12.6516 20 12.3985 20ZM10.5507 13.5C11.5295 13.5 12.3648 13.1583 13.0566 12.475C13.7485 11.7917 14.0945 10.9667 14.0945 10C14.0945 9.03333 13.7485 8.20833 13.0566 7.525C12.3648 6.84167 11.5295 6.5 10.5507 6.5C9.55509 6.5 8.71555 6.84167 8.03212 7.525C7.34868 8.20833 7.00696 9.03333 7.00696 10C7.00696 10.9667 7.34868 11.7917 8.03212 12.475C8.71555 13.1583 9.55509 13.5 10.5507 13.5ZM10.5507 11.5C10.1288 11.5 9.77024 11.3542 9.47493 11.0625C9.17962 10.7708 9.03196 10.4167 9.03196 10C9.03196 9.58333 9.17962 9.22917 9.47493 8.9375C9.77024 8.64583 10.1288 8.5 10.5507 8.5C10.9726 8.5 11.3312 8.64583 11.6265 8.9375C11.9218 9.22917 12.0695 9.58333 12.0695 10C12.0695 10.4167 11.9218 10.7708 11.6265 11.0625C11.3312 11.3542 10.9726 11.5 10.5507 11.5ZM9.48758 18H11.4873L11.8416 15.35C12.3648 15.2167 12.8499 15.0208 13.2971 14.7625C13.7443 14.5042 14.1535 14.1917 14.5248 13.825L17.0307 14.85L18.0179 13.15L15.841 11.525C15.9254 11.2917 15.9845 11.0458 16.0182 10.7875C16.052 10.5292 16.0688 10.2667 16.0688 10C16.0688 9.73333 16.052 9.47083 16.0182 9.2125C15.9845 8.95417 15.9254 8.70833 15.841 8.475L18.0179 6.85L17.0307 5.15L14.5248 6.2C14.1535 5.81667 13.7443 5.49583 13.2971 5.2375C12.8499 4.97917 12.3648 4.78333 11.8416 4.65L11.5126 2H9.5129L9.15852 4.65C8.6354 4.78333 8.15024 4.97917 7.70305 5.2375C7.25587 5.49583 6.84665 5.80833 6.4754 6.175L3.96946 5.15L2.98227 6.85L5.15915 8.45C5.07477 8.7 5.01571 8.95 4.98196 9.2C4.94821 9.45 4.93133 9.71667 4.93133 10C4.93133 10.2667 4.94821 10.525 4.98196 10.775C5.01571 11.025 5.07477 11.275 5.15915 11.525L2.98227 13.15L3.96946 14.85L6.4754 13.8C6.84665 14.1833 7.25587 14.5042 7.70305 14.7625C8.15024 15.0208 8.6354 15.2167 9.15852 15.35L9.48758 18Z" fill="#D9D9D9"/>
</svg>
