<svg width="24" height="24" viewBox="0 0 24 24" fill="none" xmlns="http://www.w3.org/2000/svg">
<mask id="mask0_247_44" style="mask-type:alpha" maskUnits="userSpaceOnUse" x="0" y="0" width="24" height="24">
<rect width="24" height="24" fill="#D9D9D9"/>
</mask>
<g mask="url(#mask0_247_44)">
<path d="M14.525 11C15.3688 11 16.0859 10.7083 16.6766 10.125C17.2672 9.54167 17.5625 8.83333 17.5625 8C17.5625 7.16667 17.2672 6.45833 16.6766 5.875C16.0859 5.29167 15.3688 5 14.525 5C13.6813 5 12.9641 5.29167 12.3734 5.875C11.7828 6.45833 11.4875 7.16667 11.4875 8C11.4875 8.83333 11.7828 9.54167 12.3734 10.125C12.9641 10.7083 13.6813 11 14.525 11ZM8.45 15.75C9.1925 14.9 10.0869 14.2292 11.1331 13.7375C12.1794 13.2458 13.31 13 14.525 13C15.74 13 16.8706 13.2458 17.9169 13.7375C18.9631 14.2292 19.8575 14.9 20.6 15.75V4H8.45V15.75ZM8.45 18C7.89313 18 7.41641 17.8042 7.01984 17.4125C6.62328 17.0208 6.425 16.55 6.425 16V4C6.425 3.45 6.62328 2.97917 7.01984 2.5875C7.41641 2.19583 7.89313 2 8.45 2H20.6C21.1569 2 21.6336 2.19583 22.0302 2.5875C22.4267 2.97917 22.625 3.45 22.625 4V16C22.625 16.55 22.4267 17.0208 22.0302 17.4125C21.6336 17.8042 21.1569 18 20.6 18H8.45ZM4.4 22C3.84313 22 3.36641 21.8042 2.96984 21.4125C2.57328 21.0208 2.375 20.55 2.375 20V7C2.375 6.71667 2.47203 6.47917 2.66609 6.2875C2.86016 6.09583 3.10063 6 3.3875 6C3.67438 6 3.91484 6.09583 4.10891 6.2875C4.30297 6.47917 4.4 6.71667 4.4 7V20H17.5625C17.8494 20 18.0898 20.0958 18.2839 20.2875C18.478 20.4792 18.575 20.7167 18.575 21C18.575 21.2833 18.478 21.5208 18.2839 21.7125C18.0898 21.9042 17.8494 22 17.5625 22H4.4ZM14.525 9C14.2381 9 13.9977 8.90417 13.8036 8.7125C13.6095 8.52083 13.5125 8.28333 13.5125 8C13.5125 7.71667 13.6095 7.47917 13.8036 7.2875C13.9977 7.09583 14.2381 7 14.525 7C14.8119 7 15.0523 7.09583 15.2464 7.2875C15.4405 7.47917 15.5375 7.71667 15.5375 8C15.5375 8.28333 15.4405 8.52083 15.2464 8.7125C15.0523 8.90417 14.8119 9 14.525 9ZM11.1838 16H17.8663C17.3769 15.6667 16.8495 15.4167 16.2842 15.25C15.7189 15.0833 15.1325 15 14.525 15C13.9175 15 13.3311 15.0833 12.7658 15.25C12.2005 15.4167 11.6731 15.6667 11.1838 16Z" fill="#D9D9D9"/>
</g>
</svg>
