<svg width="24" height="24" viewBox="0 0 24 24" fill="none" xmlns="http://www.w3.org/2000/svg">
<mask id="mask0_247_14" style="mask-type:alpha" maskUnits="userSpaceOnUse" x="0" y="0" width="24" height="24">
<rect width="24" height="24" fill="#D9D9D9"/>
</mask>
<g mask="url(#mask0_247_14)">
<path d="M12.5 21C11.2343 21 10.0489 20.7625 8.94355 20.2875C7.83823 19.8125 6.87636 19.1708 6.05792 18.3625C5.23948 17.5542 4.5898 16.6042 4.10886 15.5125C3.62792 14.4208 3.38745 13.25 3.38745 12C3.38745 10.75 3.62792 9.57917 4.10886 8.4875C4.5898 7.39583 5.23948 6.44583 6.05792 5.6375C6.87636 4.82917 7.83823 4.1875 8.94355 3.7125C10.0489 3.2375 11.2343 3 12.5 3C13.8837 3 15.1957 3.29167 16.436 3.875C17.6764 4.45833 18.7268 5.28333 19.5875 6.35V5C19.5875 4.71667 19.6845 4.47917 19.8785 4.2875C20.0726 4.09583 20.3131 4 20.6 4C20.8868 4 21.1273 4.09583 21.3214 4.2875C21.5154 4.47917 21.6125 4.71667 21.6125 5V9C21.6125 9.28333 21.5154 9.52083 21.3214 9.7125C21.1273 9.90417 20.8868 10 20.6 10H16.55C16.2631 10 16.0226 9.90417 15.8285 9.7125C15.6345 9.52083 15.5375 9.28333 15.5375 9C15.5375 8.71667 15.6345 8.47917 15.8285 8.2875C16.0226 8.09583 16.2631 8 16.55 8H18.3218C17.63 7.06667 16.7778 6.33333 15.7653 5.8C14.7528 5.26667 13.6643 5 12.5 5C10.5256 5 8.85073 5.67917 7.47542 7.0375C6.10011 8.39583 5.41245 10.05 5.41245 12C5.41245 13.95 6.10011 15.6042 7.47542 16.9625C8.85073 18.3208 10.5256 19 12.5 19C14.1031 19 15.5375 18.525 16.8031 17.575C18.0687 16.625 18.904 15.4 19.309 13.9C19.3934 13.6333 19.5453 13.4333 19.7646 13.3C19.984 13.1667 20.2287 13.1167 20.4987 13.15C20.7856 13.1833 21.0134 13.3042 21.1821 13.5125C21.3509 13.7208 21.4015 13.95 21.334 14.2C20.8446 16.1833 19.7815 17.8125 18.1446 19.0875C16.5078 20.3625 14.6262 21 12.5 21ZM13.5125 11.6L16.0437 14.1C16.2293 14.2833 16.3221 14.5167 16.3221 14.8C16.3221 15.0833 16.2293 15.3167 16.0437 15.5C15.8581 15.6833 15.6218 15.775 15.335 15.775C15.0481 15.775 14.8118 15.6833 14.6262 15.5L11.7912 12.7C11.69 12.6 11.614 12.4875 11.5634 12.3625C11.5128 12.2375 11.4875 12.1083 11.4875 11.975V8C11.4875 7.71667 11.5845 7.47917 11.7785 7.2875C11.9726 7.09583 12.2131 7 12.5 7C12.7868 7 13.0273 7.09583 13.2214 7.2875C13.4154 7.47917 13.5125 7.71667 13.5125 8V11.6Z" fill="#D9D9D9"/>
</g>
</svg>
