<svg width="30" height="30" viewBox="0 0 30 30" fill="none" xmlns="http://www.w3.org/2000/svg">
<circle cx="15" cy="15" r="15" fill="#3C8DA8"/>
<mask id="mask0_126_1003" style="mask-type:alpha" maskUnits="userSpaceOnUse" x="3" y="3" width="24" height="24">
<rect x="3" y="3" width="24" height="24" fill="#D9D9D9"/>
</mask>
<g mask="url(#mask0_126_1003)">
<path d="M15 22C14.7167 22 14.4792 21.9042 14.2875 21.7125C14.0958 21.5208 14 21.2833 14 21V16H9C8.71667 16 8.47917 15.9042 8.2875 15.7125C8.09583 15.5208 8 15.2833 8 15C8 14.7167 8.09583 14.4792 8.2875 14.2875C8.47917 14.0958 8.71667 14 9 14H14V9C14 8.71667 14.0958 8.47917 14.2875 8.2875C14.4792 8.09583 14.7167 8 15 8C15.2833 8 15.5208 8.09583 15.7125 8.2875C15.9042 8.47917 16 8.71667 16 9V14H21C21.2833 14 21.5208 14.0958 21.7125 14.2875C21.9042 14.4792 22 14.7167 22 15C22 15.2833 21.9042 15.5208 21.7125 15.7125C21.5208 15.9042 21.2833 16 21 16H16V21C16 21.2833 15.9042 21.5208 15.7125 21.7125C15.5208 21.9042 15.2833 22 15 22Z" fill="white"/>
</g>
</svg>
