<svg width="16" height="17" viewBox="0 0 16 17" fill="none" xmlns="http://www.w3.org/2000/svg">
<path d="M12.5357 0.796839H2.89286C1.29576 0.796839 0 2.0926 0 3.6897V13.3326C0 14.9297 1.29576 16.2254 2.89286 16.2254H8.23661V10.2488H6.22768V7.91849H8.23661V6.20086C8.23661 4.21202 9.46205 3.1272 11.24 3.1272C12.0837 3.1272 12.817 3.18746 13.0279 3.2176V5.29684L11.8025 5.30688C10.8281 5.30688 10.6473 5.75889 10.6473 6.43188V7.91849H12.9475L12.6462 10.2488H10.6473V16.2254H12.5357C14.1328 16.2254 15.4286 14.9297 15.4286 13.3326V3.6897C15.4286 2.0926 14.1328 0.796839 12.5357 0.796839Z" fill="#0CC0DF"/>
</svg>
