<svg width="24" height="15" viewBox="0 0 24 15" fill="none" xmlns="http://www.w3.org/2000/svg">
<path d="M14.4342 7.68188C14.4342 7.19974 14.3839 6.82809 14.3136 6.45644H7.36272V8.98769H11.5413C11.3705 10.0625 10.2757 12.1618 7.36272 12.1618C4.85156 12.1618 2.80246 10.0826 2.80246 7.51113C2.80246 4.9397 4.85156 2.86046 7.36272 2.86046C8.79911 2.86046 9.75335 3.47318 10.2958 3.9955L12.2946 2.07697C11.0089 0.871617 9.35156 0.148402 7.36272 0.148402C3.29464 0.148402 0 3.44305 0 7.51113C0 11.5792 3.29464 14.8738 7.36272 14.8738C11.6116 14.8738 14.4342 11.8906 14.4342 7.68188ZM23.1429 6.45644H21.0435V4.35711H18.9342V6.45644H16.8348V8.56581H18.9342V10.6651H21.0435V8.56581H23.1429V6.45644Z" fill="#0CC0DF"/>
</svg>
