<svg width="17" height="13" viewBox="0 0 17 13" fill="none" xmlns="http://www.w3.org/2000/svg">
<path d="M16.2723 1.60934C15.6897 1.86046 15.0569 2.04126 14.404 2.11157C15.077 1.70979 15.5893 1.07697 15.8304 0.323626C15.2076 0.695277 14.5045 0.966483 13.7712 1.10711C13.1786 0.474295 12.3348 0.0825541 11.4007 0.0825541C9.60268 0.0825541 8.15625 1.53903 8.15625 3.32697C8.15625 3.57809 8.18638 3.82921 8.23661 4.07028C5.54464 3.92965 3.14397 2.64394 1.54688 0.675188C1.26562 1.15733 1.10491 1.70979 1.10491 2.31246C1.10491 3.43746 1.67746 4.43188 2.55134 5.01447C2.01897 4.99438 1.51674 4.84371 1.08482 4.60264C1.08482 4.61269 1.08482 4.63278 1.08482 4.64282C1.08482 6.21983 2.19978 7.52563 3.68638 7.82697C3.41518 7.89729 3.12388 7.93746 2.83259 7.93746C2.62165 7.93746 2.42076 7.91738 2.21987 7.88724C2.6317 9.17296 3.82701 10.1071 5.25335 10.1372C4.13839 11.0111 2.74219 11.5234 1.22545 11.5234C0.954241 11.5234 0.703125 11.5134 0.441964 11.4832C1.87835 12.4073 3.58594 12.9397 5.42411 12.9397C11.3906 12.9397 14.6551 7.99773 14.6551 3.70867C14.6551 3.56805 14.6551 3.42742 14.6451 3.2868C15.2779 2.82474 15.8304 2.2522 16.2723 1.60934Z" fill="#0CC0DF"/>
</svg>
